<svg width="171" height="68" viewBox="0 0 171 68" fill="none" xmlns="http://www.w3.org/2000/svg">
<path d="M8.96 5.792L0.704 3.68C0.704 1.76 1.184 0.799995 2.144 0.799995C3.296 0.799995 6.88 0.927996 12.896 1.184L22.784 0.799995C23.744 0.799995 24.224 1.76 24.224 3.68L15.968 5.792L16.448 34.4L15.968 62.72H38.528L41.024 53.696C41.28 52.8 42.624 52.352 45.056 52.352L44.288 66.848C44.224 67.616 43.296 68 41.504 68L12.896 67.232L2.144 68C1.184 68 0.704 67.04 0.704 65.12L8.96 63.008L8.48 34.4L8.96 5.792ZM117.007 3.68L108.943 5.792V63.008L117.007 65.12C117.007 67.04 116.527 68 115.567 68C114.991 68 111.695 67.872 105.679 67.616L95.5985 68C94.6385 68 94.1585 67.04 94.1585 65.12L101.839 63.008L100.879 35.36L66.8945 36.704L66.0305 63.008L73.7105 65.12C73.7105 67.04 73.2305 68 72.2705 68C71.5025 68 68.1425 67.872 62.1905 67.616L52.3025 68C51.3425 68 50.8625 67.04 50.8625 65.12L58.9265 63.008V5.792L50.8625 3.68C50.8625 1.76 51.3425 0.799995 52.3025 0.799995C52.8785 0.799995 56.1745 0.927996 62.1905 1.184L72.2705 0.799995C73.2305 0.799995 73.7105 1.76 73.7105 3.68L66.0305 5.792L66.8945 31.136H100.975L101.839 5.792L94.1585 3.68C94.1585 1.76 94.6385 0.799995 95.5985 0.799995C96.3665 0.799995 99.7265 0.927996 105.679 1.184L115.567 0.799995C116.527 0.799995 117.007 1.76 117.007 3.68ZM134.773 5.792L126.517 3.68C126.517 1.76 126.997 0.799995 127.957 0.799995C129.109 0.799995 132.693 0.927996 138.709 1.184L148.597 0.799995C149.557 0.799995 150.036 1.76 150.036 3.68L141.781 5.792L142.261 34.4L141.781 62.72H164.341L166.837 53.696C167.093 52.8 168.437 52.352 170.869 52.352L170.101 66.848C170.037 67.616 169.109 68 167.317 68L138.709 67.232L127.957 68C126.997 68 126.517 67.04 126.517 65.12L134.773 63.008L134.293 34.4L134.773 5.792Z" fill="black"/>
</svg>
