<svg width="220" height="293" viewBox="0 0 220 293" fill="none" xmlns="http://www.w3.org/2000/svg">
<path d="M107.5 293L137 135H78L107.5 293Z" fill="url(#paint0_radial_0_1)"/>
<path d="M150 0L220 143H150V0Z" fill="url(#paint1_linear_0_1)"/>
<path d="M70 0L0 143H70V0Z" fill="url(#paint2_linear_0_1)"/>
<path d="M13.062 264.509L136.938 164.491L73.4964 134.907L13.062 264.509Z" fill="url(#paint3_linear_0_1)"/>
<path d="M206.938 264.509L83.062 164.491L146.504 134.907L206.938 264.509Z" fill="url(#paint4_linear_0_1)"/>
<circle cx="110" cy="143" r="75" fill="#3EA2FF"/>
<path d="M59.5 127L63.2045 138.401H75.1924L65.494 145.448L69.1985 156.849L59.5 149.802L49.8015 156.849L53.506 145.448L43.8076 138.401H55.7955L59.5 127Z" fill="url(#paint5_linear_0_1)"/>
<path d="M159.5 127L163.204 138.401H175.192L165.494 145.448L169.198 156.849L159.5 149.802L149.802 156.849L153.506 145.448L143.808 138.401H155.796L159.5 127Z" fill="url(#paint6_linear_0_1)"/>
<path d="M82.5 87L86.2045 98.4012H98.1924L88.494 105.448L92.1985 116.849L82.5 109.802L72.8015 116.849L76.506 105.448L66.8076 98.4012H78.7955L82.5 87Z" fill="url(#paint7_linear_0_1)"/>
<path d="M136.5 87L140.204 98.4012H152.192L142.494 105.448L146.198 116.849L136.5 109.802L126.802 116.849L130.506 105.448L120.808 98.4012H132.796L136.5 87Z" fill="url(#paint8_linear_0_1)"/>
<path d="M109.5 116L115.674 135.002H135.654L119.49 146.746L125.664 165.748L109.5 154.004L93.3359 165.748L99.51 146.746L83.3459 135.002H103.326L109.5 116Z" fill="url(#paint9_linear_0_1)"/>
<defs>
<radialGradient id="paint0_radial_0_1" cx="0" cy="0" r="1" gradientUnits="userSpaceOnUse" gradientTransform="translate(107.5 214) rotate(-90) scale(79 29.5)">
<stop stop-color="#5FE2FF"/>
<stop offset="1" stop-color="#28FF7E"/>
</radialGradient>
<linearGradient id="paint1_linear_0_1" x1="185" y1="0" x2="185" y2="143" gradientUnits="userSpaceOnUse">
<stop stop-color="#23EBF8"/>
<stop offset="1" stop-color="#3BDD7C"/>
</linearGradient>
<linearGradient id="paint2_linear_0_1" x1="35" y1="0" x2="35" y2="143" gradientUnits="userSpaceOnUse">
<stop stop-color="#23EBF8"/>
<stop offset="1" stop-color="#3BDD7C"/>
</linearGradient>
<linearGradient id="paint3_linear_0_1" x1="44.7828" y1="279.301" x2="105.217" y2="149.699" gradientUnits="userSpaceOnUse">
<stop stop-color="#23EBF8"/>
<stop offset="1" stop-color="#3BDD7C"/>
</linearGradient>
<linearGradient id="paint4_linear_0_1" x1="175.217" y1="279.301" x2="114.783" y2="149.699" gradientUnits="userSpaceOnUse">
<stop stop-color="#23EBF8"/>
<stop offset="1" stop-color="#3BDD7C"/>
</linearGradient>
<linearGradient id="paint5_linear_0_1" x1="59.5" y1="127" x2="59.5" y2="160" gradientUnits="userSpaceOnUse">
<stop stop-color="#FFC700"/>
<stop offset="1" stop-color="#BDFF00"/>
</linearGradient>
<linearGradient id="paint6_linear_0_1" x1="159.5" y1="127" x2="159.5" y2="160" gradientUnits="userSpaceOnUse">
<stop stop-color="#FFC700"/>
<stop offset="1" stop-color="#BDFF00"/>
</linearGradient>
<linearGradient id="paint7_linear_0_1" x1="82.5" y1="87" x2="82.5" y2="120" gradientUnits="userSpaceOnUse">
<stop stop-color="#FFC700"/>
<stop offset="1" stop-color="#BDFF00"/>
</linearGradient>
<linearGradient id="paint8_linear_0_1" x1="136.5" y1="87" x2="136.5" y2="120" gradientUnits="userSpaceOnUse">
<stop stop-color="#FFC700"/>
<stop offset="1" stop-color="#BDFF00"/>
</linearGradient>
<linearGradient id="paint9_linear_0_1" x1="109.5" y1="116" x2="109.5" y2="171" gradientUnits="userSpaceOnUse">
<stop stop-color="#FFC700"/>
<stop offset="1" stop-color="#BDFF00"/>
</linearGradient>
</defs>
</svg>
